#!OML:ASF H:\Not Pregnant\Project 1\Capture day 1\Session 1\non-pregnant.ASF
:FULLY-SPECIFIED
:DEGREES
1912
root 17.699 15.6329 28.5969 728.39 -0.379329 356.924
lowerback -3.23138 -0.491585 0.188225
upperback -7.32044 -0.634602 0.571021
thorax -5.76937 -0.309441 0.49939
lowerneck 27.0808 -10.3599 -32.1948
upperneck -8.58494 -22.3055 40.4733
head 2.37932 -14.0763 20.7818
rclavicle 1.30204e-014 -7.95139e-015
rhumerus -42.1463 -7.24599 -79.6475
rradius 23.3747
rwrist 25.9486
rhand -4.39698 -0.213646
rfingers 7.12502
rthumb 21.3727 -29.0549
lclavicle 1.30204e-014 -7.95139e-015
lhumerus -51.8104 -3.65581 88.0626
lradius 25.8687
lwrist 29.9744
lhand -13.2424 -4.94244
lfingers 7.12502
lthumb 12.8595 24.6414
rfemur -31.5266 0.111014 29.7112
rtibia 35.2391
rfoot -10.3984 13.1982
rtoes 0.340988
lfemur -5.40351 -2.40119 -15.6685
ltibia 48.2619
lfoot 23.0352 -24.9231
ltoes -8.47146
1913
root 17.6921 15.6293 28.7012 728.464 -0.502289 356.461
lowerback -3.16696 -0.40093 0.614388
upperback -7.33042 -0.505479 0.687517
thorax -5.82076 -0.264968 0.38038
lowerneck 27.2163 -10.3794 -32.1467
upperneck -8.86997 -22.2941 40.6036
head 2.29456 -14.096 20.871
rclavicle 1.88845e-015 -5.96354e-015
rhumerus -41.8442 -7.22852 -79.6966
rradius 23.4432
rwrist 25.7926
rhand -4.70482 -0.229479
rfingers 7.12502
rthumb 21.077 -29.104
lclavicle 1.88845e-015 -5.96354e-015
lhumerus -52.0213 -4.40017 88.6726
lradius 26.1044
lwrist 30.0953
lhand -12.8775 -5.25825
lfingers 7.12502
lthumb 13.2113 24.3031
rfemur -31.1357 -0.00015191 30.2824
rtibia 35.1811
rfoot -10.7579 13.4799
rtoes 0.577183
lfemur -6.81785 -1.95158 -14.9301
ltibia 50.2177
lfoot 20.5723 -25.4148
ltoes -10.2784
1914
root 17.6862 15.6241 28.8026 728.537 -0.681483 355.985
lowerback -3.11467 -0.289696 1.05974
upperback -7.3203 -0.348551 0.799736
thorax -5.84304 -0.207978 0.245192
lowerneck 27.3087 -10.4201 -32.0803
upperneck -9.12408 -22.2995 40.712
head 2.22559 -14.1185 20.9325
rclavicle 2.6339e-015 -5.1684e-015
rhumerus -41.4681 -7.28583 -79.7211
rradius 23.4505
rwrist 25.7168
rhand -5.02619 -0.25992
rfingers 7.12502
rthumb 20.7682 -29.1685
lclavicle 2.6339e-015 -5.1684e-015
lhumerus -52.1618 -5.10263 89.2396
lradius 26.3374
lwrist 30.2248
lhand -12.5551 -5.58705
lfingers 7.12502
lthumb 13.5221 23.9539
rfemur -30.7471 -0.0677865 30.8644
rtibia 35.1258
rfoot -11.1109 13.7593
rtoes 0.775209
lfemur -8.25305 -1.43246 -14.2054
ltibia 52.1323
lfoot 17.5987 -25.7609
ltoes -13.0812
1915
root 17.6812 15.6181 28.9022 728.596 -0.911449 355.546
lowerback -3.04905 -0.166174 1.47312
upperback -7.30157 -0.175343 0.898201
thorax -5.86218 -0.141585 0.113097
lowerneck 27.3961 -10.4589 -32.015
upperneck -9.36348 -22.3044 40.822
head 2.16173 -14.1408 20.9952
rclavicle 1.50579e-014 6.36111e-015
rhumerus -41.0481 -7.41305 -79.7138
rradius 23.4093
rwrist 25.7362
rhand -5.34496 -0.311186
rfingers 7.12502
rthumb 20.4619 -29.253
lclavicle 1.50579e-014 6.36111e-015
lhumerus -52.2578 -5.74201 89.7546
lradius 26.5721
lwrist 30.3744
lhand -12.3025 -5.92281
lfingers 7.12502
lthumb 13.7655 23.6018
rfemur -30.3482 -0.127996 31.4058
rtibia 35.0801
rfoot -11.4672 14.0543
rtoes 0.961764
lfemur -9.67579 -0.874648 -13.5521
ltibia 53.9663
lfoot 14.1895 -25.8995
ltoes -16.7981
1916
root 17.6768 15.6116 29.0009 728.633 -1.18535 355.15
lowerback -2.9604 -0.0333223 1.84408
upperback -7.28177 0.010525 0.981709
thorax -5.89158 -0.0671175 -0.0112673
lowerneck 27.4801 -10.4931 -31.9534
upperneck -9.56514 -22.311 40.9177
head 2.10702 -14.1626 21.0499
rclavicle 1.28216e-014 9.54166e-015
rhumerus -40.6137 -7.59898 -79.679
rradius 23.3376
rwrist 25.8357
rhand -5.66376 -0.37036
rfingers 7.12502
rthumb 20.1556 -29.3448
lclavicle 1.28216e-014 9.54166e-015
lhumerus -52.3263 -6.30971 90.2094
lradius 26.8139
lwrist 30.5522
lhand -12.1293 -6.21328
lfingers 7.12502
lthumb 13.9324 23.2999
rfemur -29.9265 -0.193698 31.8984
rtibia 35.0438
rfoot -11.832 14.3679
rtoes 1.11191
lfemur -11.0609 -0.297766 -12.9762
ltibia 55.691
lfoot 10.5715 -25.7725
ltoes -20.6713
1917
root 17.6724 15.6051 29.0982 728.642 -1.49415 354.808
lowerback -2.83161 0.103759 2.15732
upperback -7.26335 0.202833 1.04883
thorax -5.94364 0.0129716 -0.1209
lowerneck 27.572 -10.5172 -31.9013
upperneck -9.73873 -22.3152 41.0097
head 2.05814 -14.1836 21.1068
rclavicle 1.41634e-014 -7.95139e-016
rhumerus -40.1719 -7.83478 -79.6263
rradius 23.2479
rwrist 25.9973
rhand -5.97328 -0.457731
rfingers 7.12502
rthumb 19.858 -29.4632
lclavicle 1.41634e-014 -7.95139e-016
lhumerus -52.3659 -6.80041 90.5967
lradius 27.0691
lwrist 30.7702
lhand -12.0461 -6.40656
lfingers 7.12502
lthumb 14.0126 23.1011
rfemur -29.4818 -0.269601 32.3313
rtibia 35.0193
rfoot -12.2028 14.6978
rtoes 1.26604
lfemur -12.4033 0.280121 -12.4825
ltibia 57.2857
lfoot 6.94094 -25.3579
ltoes -24.3245
1918
root 17.668 15.599 29.195 728.622 -1.83223 354.526
lowerback -2.68277 0.243028 2.40875
upperback -7.23486 0.398044 1.09832
thorax -5.99495 0.0973084 -0.21505
lowerneck 27.6603 -10.5332 -31.8538
upperneck -9.88832 -22.3137 41.099
head 2.01403 -14.2015 21.165
rclavicle -1.70955e-014 -1.82882e-014
rhumerus -39.712 -8.11839 -79.5626
rradius 23.1476
rwrist 26.2055
rhand -6.27255 -0.562124
rfingers 7.12502
rthumb 19.5703 -29.5971
lclavicle -1.70955e-014 -1.82882e-014
lhumerus -52.3531 -7.20368 90.9047
lradius 27.3288
lwrist 31.0424
lhand -12.0445 -6.51024
lfingers 7.12502
lthumb 14.0141 22.9973
rfemur -29.0075 -0.362587 32.6954
rtibia 35.0001
rfoot -12.583 15.0513
rtoes 1.43472
lfemur -13.6947 0.842708 -12.0761
ltibia 58.738
lfoot 3.47908 -24.651
ltoes -27.3873
1919
root 17.6638 15.5934 29.2914 728.573 -2.18735 354.305
lowerback -2.50339 0.382084 2.60408
upperback -7.20959 0.593424 1.12702
thorax -6.06601 0.183853 -0.300318
lowerneck 27.7684 -10.5342 -31.8226
upperneck -10.011 -22.3091 41.1858
head 1.97429 -14.2193 21.2296
rclavicle -9.14409e-015 7.55382e-015
rhumerus -39.2617 -8.43311 -79.4966
rradius 23.0487
rwrist 26.4281
rhand -6.56001 -0.691076
rfingers 7.12502
rthumb 19.2939 -29.754
lclavicle -9.14409e-015 7.55382e-015
lhumerus -52.308 -7.53055 91.1384
lradius 27.5907
lwrist 31.3648
lhand -12.1107 -6.51888
lfingers 7.12502
lthumb 13.9503 22.9931
rfemur -28.5031 -0.490294 32.9864
rtibia 34.982
rfoot -12.9721 15.4401
rtoes 1.62273
lfemur -14.9339 1.37083 -11.7597
ltibia 60.0376
lfoot 0.29694 -23.6753
ltoes -29.9148
1920
root 17.6591 15.5883 29.3866 728.506 -2.55966 354.106
lowerback -2.32265 0.524049 2.77551
upperback -7.16673 0.792306 1.14529
thorax -6.118 0.273334 -0.384041
lowerneck 27.8533 -10.5425 -31.7848
upperneck -10.1086 -22.3108 41.26
head 1.94425 -14.2372 21.2799
rclavicle 1.8487e-014 -1.07344e-014
rhumerus -38.7787 -8.77512 -79.4481
rradius 22.953
rwrist 26.6451
rhand -6.83487 -0.848139
rfingers 7.12502
rthumb 19.0296 -29.9372
lclavicle 1.8487e-014 -1.07344e-014
lhumerus -52.1828 -7.78032 91.2829
lradius 27.8452
lwrist 31.7135
lhand -12.2257 -6.4626
lfingers 7.12502
lthumb 13.8395 23.057
rfemur -27.9794 -0.600135 33.2421
rtibia 34.9563
rfoot -13.3429 15.8297
rtoes 1.83823
lfemur -16.1458 1.86759 -11.4801
ltibia 61.1897
lfoot -2.53938 -22.4777
ltoes -31.9847
